<svg width="19" height="20" viewBox="0 0 19 20" fill="none" xmlns="http://www.w3.org/2000/svg">
<path d="M1.70833 7C1.52047 7 1.3403 7.07024 1.20747 7.19526C1.07463 7.32029 1 7.48986 1 7.66667V16.6667C1 17.9267 2.14042 19 3.47917 19H15.5208C16.8596 19 18 17.9788 18 16.7188V7.66667C18 7.48986 17.9254 7.32029 17.7925 7.19526C17.6597 7.07024 17.4795 7 17.2917 7H1.70833Z" stroke="#474A51" stroke-linecap="round" stroke-linejoin="round"/>
<path d="M5 7V5.5C5 4.30653 5.47411 3.16193 6.31802 2.31802C7.16193 1.47411 8.30653 1 9.5 1V1C10.6935 1 11.8381 1.47411 12.682 2.31802C13.5259 3.16193 14 4.30653 14 5.5V7" stroke="#474A51" stroke-linecap="round" stroke-linejoin="round"/>
</svg>
