<svg width="348" height="42" viewBox="0 0 348 42" fill="none" xmlns="http://www.w3.org/2000/svg">
<path d="M20.0407 1.976C26.0034 1.976 30.822 3.692 34.4967 7.124C38.206 10.5213 40.0607 14.9933 40.0607 20.54C40.0607 26.0173 38.1194 30.576 34.2367 34.216C30.354 37.8213 25.518 39.624 19.7287 39.624C13.9394 39.624 9.20735 37.9253 5.53269 34.528C1.89269 31.096 0.0726876 26.6413 0.0726876 21.164C0.0726876 15.6867 1.97935 11.128 5.79269 7.488C9.60602 3.81333 14.3554 1.976 20.0407 1.976ZM21.0287 38.896C24.53 38.8267 27.4767 37.4227 29.8687 34.684C32.2607 31.9107 33.3874 27.7507 33.2487 22.204C33.214 17.0733 31.862 12.532 29.1927 8.58C26.5927 4.59333 23.23 2.63466 19.1047 2.704C15.5687 2.77333 12.6047 4.19466 10.2127 6.968C7.82069 9.81066 6.69402 14.0053 6.83269 19.552C6.86735 22.7067 7.45669 25.8093 8.60069 28.86C9.71002 31.772 11.3567 34.1987 13.5407 36.14C15.7247 38.0467 18.2207 38.9653 21.0287 38.896ZM62.5202 39.52C57.3202 39.52 52.8656 37.856 49.1562 34.528C45.4469 31.2 43.5922 26.7973 43.5922 21.32C43.5922 15.704 45.4122 11.076 49.0522 7.436C52.7616 3.796 57.3202 1.976 62.7282 1.976C64.1842 1.976 65.8309 2.132 67.6682 2.444C69.5056 2.756 70.5629 2.912 70.8402 2.912C72.1576 2.912 73.0589 2.09733 73.5442 0.467997C73.7522 0.190665 73.8562 0.190665 73.8562 0.467997L77.7562 16.692C77.7562 16.8307 77.6869 16.8827 77.5482 16.848C77.5136 16.848 77.4616 16.796 77.3922 16.692C75.7282 12.1853 73.4229 8.71867 70.4762 6.292C67.5296 3.86533 64.8082 2.652 62.3122 2.652C58.9842 2.652 56.1762 4.09066 53.8882 6.968C51.6349 9.84533 50.5082 13.6587 50.5082 18.408C50.5082 23.712 51.9642 28.028 54.8762 31.356C57.8229 34.684 61.6709 36.348 66.4202 36.348C72.4869 36.348 77.1669 32.6733 80.4602 25.324C80.5989 25.1853 80.7202 25.168 80.8242 25.272C80.9282 25.3413 80.9456 25.4627 80.8762 25.636C76.7162 34.892 70.5976 39.52 62.5202 39.52ZM118.165 24.596C118.304 24.492 118.442 24.492 118.581 24.596L114.889 41.132C114.854 41.3747 114.75 41.3747 114.577 41.132L113.641 40.196C112.67 39.3987 110.972 39 108.545 39H87.9531C87.9184 39 87.2424 39.0173 85.9251 39.052C84.6078 39.1213 83.4464 39.156 82.4411 39.156C82.3371 39.156 82.2504 39.1213 82.1811 39.052C82.1464 38.9827 82.1464 38.9133 82.1811 38.844C82.2504 38.7747 82.3371 38.74 82.4411 38.74C83.4118 38.6707 84.1398 38.584 84.6251 38.48C85.1104 38.3413 85.5611 38.1507 85.9771 37.908C86.4278 37.6307 86.7224 37.18 86.8611 36.556C87.0344 35.8973 87.1731 35.1347 87.2771 34.268C87.3811 33.3667 87.4504 32.1013 87.4851 30.472V11.128C87.4504 9.49867 87.3811 8.25067 87.2771 7.384C87.1731 6.48267 87.0344 5.72 86.8611 5.096C86.7224 4.43733 86.4278 3.98667 85.9771 3.744C85.5611 3.46666 85.1104 3.276 84.6251 3.172C84.1398 3.03333 83.4118 2.92933 82.4411 2.86C82.3371 2.86 82.2504 2.82533 82.1811 2.756C82.1464 2.68666 82.1464 2.61733 82.1811 2.548C82.2504 2.47867 82.3371 2.444 82.4411 2.444C83.4464 2.444 84.6078 2.47867 85.9251 2.548C87.2424 2.58266 87.9184 2.6 87.9531 2.6H105.789C109.152 2.6 111.249 1.88933 112.081 0.467997C112.254 0.294664 112.358 0.294664 112.393 0.467997L116.033 16.536C116.033 16.6053 115.998 16.6573 115.929 16.692C115.894 16.7267 115.842 16.7267 115.773 16.692C115.704 16.6573 115.652 16.6053 115.617 16.536C112.358 7.66133 107.193 3.224 100.121 3.224H93.7251V20.124H99.8091C101.82 20.124 103.345 19.656 104.385 18.72C105.425 17.7493 105.945 16.3973 105.945 14.664C105.945 14.5253 105.997 14.456 106.101 14.456C106.205 14.4907 106.274 14.56 106.309 14.664V26.26C106.309 26.364 106.257 26.4507 106.153 26.52C106.049 26.4853 105.98 26.3987 105.945 26.26C105.945 24.388 105.442 23.0013 104.437 22.1C103.466 21.1987 101.924 20.748 99.8091 20.748H93.7251V38.376H100.849C109.273 38.376 115.045 33.7827 118.165 24.596ZM164.181 38.74C164.285 38.74 164.355 38.7747 164.389 38.844C164.459 38.9133 164.459 38.9827 164.389 39.052C164.355 39.1213 164.285 39.156 164.181 39.156C163.176 39.156 162.015 39.1213 160.697 39.052C159.415 39.0173 158.756 39 158.721 39H153.365C153.331 39 152.655 39.0173 151.337 39.052C150.055 39.1213 148.911 39.156 147.905 39.156C147.801 39.156 147.715 39.1213 147.645 39.052C147.611 38.9827 147.611 38.9133 147.645 38.844C147.715 38.7747 147.801 38.74 147.905 38.74C149.465 38.636 150.54 38.4107 151.129 38.064C151.719 37.7173 152.135 37.024 152.377 35.984C152.655 34.944 152.828 33.1067 152.897 30.472V20.384C151.164 20.384 149.587 20.4013 148.165 20.436H143.069H137.713C136.153 20.4013 134.541 20.384 132.877 20.384V30.472C132.947 33.1067 133.103 34.944 133.345 35.984C133.623 37.024 134.056 37.7173 134.645 38.064C135.235 38.4107 136.309 38.636 137.869 38.74C137.973 38.74 138.043 38.7747 138.077 38.844C138.147 38.9133 138.164 38.9827 138.129 39.052C138.095 39.1213 138.008 39.156 137.869 39.156C136.864 39.156 135.703 39.1213 134.385 39.052C133.103 39.0173 132.444 39 132.409 39H127.105C127.071 39 126.395 39.0173 125.077 39.052C123.76 39.1213 122.599 39.156 121.593 39.156C121.489 39.156 121.403 39.1213 121.333 39.052C121.299 38.9827 121.299 38.9133 121.333 38.844C121.403 38.7747 121.489 38.74 121.593 38.74C122.564 38.6707 123.292 38.584 123.777 38.48C124.263 38.3413 124.713 38.1507 125.129 37.908C125.58 37.6307 125.875 37.18 126.013 36.556C126.187 35.8973 126.325 35.1347 126.429 34.268C126.533 33.3667 126.603 32.1013 126.637 30.472V11.128C126.603 9.49867 126.533 8.25067 126.429 7.384C126.325 6.48267 126.187 5.72 126.013 5.096C125.875 4.43733 125.58 3.98667 125.129 3.744C124.713 3.46666 124.263 3.276 123.777 3.172C123.292 3.03333 122.564 2.92933 121.593 2.86C121.489 2.86 121.403 2.82533 121.333 2.756C121.299 2.68666 121.299 2.61733 121.333 2.548C121.403 2.47867 121.489 2.444 121.593 2.444C122.599 2.444 123.76 2.47867 125.077 2.548C126.395 2.58266 127.071 2.6 127.105 2.6H132.409C132.444 2.6 133.103 2.58266 134.385 2.548C135.703 2.47867 136.864 2.444 137.869 2.444C138.147 2.444 138.233 2.53067 138.129 2.704C138.095 2.808 138.008 2.86 137.869 2.86C136.309 2.964 135.235 3.18933 134.645 3.536C134.056 3.88266 133.623 4.576 133.345 5.616C133.103 6.656 132.947 8.49333 132.877 11.128V19.864H138.025C139.585 19.8293 141.249 19.812 143.017 19.812C145.028 19.812 146.744 19.8293 148.165 19.864H152.897V11.128C152.828 8.49333 152.655 6.656 152.377 5.616C152.135 4.576 151.719 3.88266 151.129 3.536C150.54 3.18933 149.465 2.964 147.905 2.86C147.801 2.86 147.715 2.82533 147.645 2.756C147.611 2.68666 147.611 2.61733 147.645 2.548C147.715 2.47867 147.801 2.444 147.905 2.444C148.911 2.444 150.055 2.47867 151.337 2.548C152.655 2.58266 153.331 2.6 153.365 2.6H158.721C158.756 2.6 159.415 2.58266 160.697 2.548C162.015 2.47867 163.176 2.444 164.181 2.444C164.285 2.444 164.355 2.47867 164.389 2.548C164.459 2.61733 164.459 2.68666 164.389 2.756C164.355 2.82533 164.285 2.86 164.181 2.86C163.211 2.92933 162.483 3.03333 161.997 3.172C161.512 3.276 161.044 3.46666 160.593 3.744C160.177 3.98667 159.883 4.43733 159.709 5.096C159.571 5.72 159.449 6.48267 159.345 7.384C159.241 8.25067 159.172 9.49867 159.137 11.128V30.472C159.172 32.1013 159.241 33.3667 159.345 34.268C159.449 35.1347 159.571 35.8973 159.709 36.556C159.883 37.18 160.177 37.6307 160.593 37.908C161.044 38.1507 161.512 38.3413 161.997 38.48C162.483 38.584 163.211 38.6707 164.181 38.74ZM179.088 19.656H184.392C190.598 19.656 195.364 20.488 198.692 22.152C202.055 23.816 203.736 26.1387 203.736 29.12C203.736 32.24 202.332 34.684 199.524 36.452C196.716 38.1853 192.868 39.0347 187.98 39L173.264 38.948C173.23 38.948 172.554 38.9653 171.236 39C169.954 39.0693 168.81 39.104 167.804 39.104C167.7 39.104 167.614 39.0693 167.544 39C167.51 38.9307 167.51 38.8613 167.544 38.792C167.614 38.7227 167.7 38.688 167.804 38.688C169.018 38.6187 169.884 38.532 170.404 38.428C170.959 38.2893 171.427 37.9253 171.808 37.336C172.224 36.712 172.484 35.9147 172.588 34.944C172.692 33.9733 172.779 32.4827 172.848 30.472V11.128C172.814 9.49867 172.744 8.25067 172.64 7.384C172.536 6.48267 172.398 5.72 172.224 5.096C172.086 4.43733 171.791 3.98667 171.34 3.744C170.924 3.46666 170.474 3.276 169.988 3.172C169.503 3.03333 168.775 2.92933 167.804 2.86C167.7 2.86 167.614 2.82533 167.544 2.756C167.51 2.68666 167.51 2.61733 167.544 2.548C167.614 2.47867 167.7 2.444 167.804 2.444C168.81 2.444 169.971 2.47867 171.288 2.548C172.606 2.58266 173.282 2.6 173.316 2.6H178.62C178.655 2.6 179.314 2.58266 180.596 2.548C181.914 2.47867 183.075 2.444 184.08 2.444C184.219 2.444 184.306 2.496 184.34 2.6C184.306 2.704 184.219 2.77333 184.08 2.808C182.52 2.912 181.446 3.15467 180.856 3.536C180.267 3.88266 179.834 4.576 179.556 5.616C179.314 6.656 179.158 8.49333 179.088 11.128V19.656ZM179.504 38.324H185.172C188.708 38.324 191.534 37.4747 193.648 35.776C195.798 34.0427 196.872 31.8587 196.872 29.224C196.872 23.2613 191.62 20.28 181.116 20.28H179.088V29.9C179.088 34.0253 179.227 36.8333 179.504 38.324ZM226.708 33.176C225.738 33.176 224.767 33.3667 223.796 33.748C222.826 34.1293 222.132 34.6147 221.716 35.204C221.751 35.3427 221.855 35.464 222.028 35.568L223.172 36.14C224.351 36.66 224.94 37.3013 224.94 38.064C224.94 38.5147 224.767 38.8787 224.42 39.156C224.074 39.468 223.658 39.624 223.172 39.624C222.41 39.624 221.803 39.2427 221.352 38.48C220.902 37.7173 220.763 36.7813 220.936 35.672C220.936 34.1467 221.872 32.5173 223.744 30.784C225.755 29.016 229.274 26.624 234.3 23.608C237.732 21.5627 240.194 19.552 241.684 17.576C243.175 15.6 243.92 13.4333 243.92 11.076C243.92 8.64933 243.088 6.656 241.424 5.096C239.864 3.536 238.01 2.72133 235.86 2.652C234.647 2.652 233.295 3.05066 231.804 3.848L231.128 5.928C230.99 6.344 230.799 6.93333 230.556 7.696C230.314 8.424 230.106 9.01333 229.932 9.464C229.031 11.648 227.748 12.74 226.084 12.74C225.356 12.74 224.767 12.532 224.316 12.116C223.9 11.6653 223.692 11.0933 223.692 10.4C223.692 8.944 224.438 7.54 225.928 6.188C227.419 4.87066 229.152 3.848 231.128 3.12C233.139 2.35733 235.028 1.976 236.796 1.976C240.679 1.976 243.938 2.808 246.572 4.472C249.207 6.06667 250.524 8.35467 250.524 11.336C250.524 16.4667 245.428 21.0773 235.236 25.168C231.007 27.1787 227.835 28.8947 225.72 30.316C223.64 31.7373 222.306 33.124 221.716 34.476C222.791 33.4013 224.178 32.6213 225.876 32.136C227.54 31.616 229.066 31.356 230.452 31.356C231.943 31.356 234.092 31.876 236.9 32.916C239.812 33.9213 242.274 34.424 244.284 34.424C246.642 34.424 248.392 33.8 249.536 32.552C250.75 31.304 251.738 28.912 252.5 25.376C252.535 25.3067 252.622 25.272 252.76 25.272C252.934 25.272 253.02 25.3067 253.02 25.376C251.842 30.7147 250.923 34.164 250.264 35.724C249.224 38.0467 247.664 39.3293 245.584 39.572C245.342 39.6067 244.96 39.624 244.44 39.624C241.598 39.624 238.512 38.5493 235.184 36.4C231.926 34.2507 229.1 33.176 226.708 33.176ZM285.908 34.476C282.753 37.908 278.593 39.624 273.428 39.624C268.297 39.624 264.12 37.908 260.896 34.476C257.706 30.9747 256.112 26.416 256.112 20.8C256.112 15.184 257.706 10.6427 260.896 7.176C264.05 3.70933 268.21 1.976 273.376 1.976C278.541 1.976 282.701 3.70933 285.856 7.176C289.08 10.608 290.692 15.1493 290.692 20.8C290.692 26.416 289.097 30.9747 285.908 34.476ZM265.68 34.06C267.586 37.3187 270.152 38.948 273.376 38.948C276.6 38.948 279.165 37.3187 281.072 34.06C283.013 30.7667 283.984 26.3467 283.984 20.8C283.984 15.288 283.013 10.8853 281.072 7.592C279.13 4.29866 276.565 2.652 273.376 2.652C270.186 2.652 267.621 4.29866 265.68 7.592C263.773 10.8507 262.82 15.2533 262.82 20.8C262.82 26.3813 263.773 30.8013 265.68 34.06ZM300.696 33.176C299.726 33.176 298.755 33.3667 297.784 33.748C296.814 34.1293 296.12 34.6147 295.704 35.204C295.739 35.3427 295.843 35.464 296.016 35.568L297.16 36.14C298.339 36.66 298.928 37.3013 298.928 38.064C298.928 38.5147 298.755 38.8787 298.408 39.156C298.062 39.468 297.646 39.624 297.16 39.624C296.398 39.624 295.791 39.2427 295.34 38.48C294.89 37.7173 294.751 36.7813 294.924 35.672C294.924 34.1467 295.86 32.5173 297.732 30.784C299.743 29.016 303.262 26.624 308.288 23.608C311.72 21.5627 314.182 19.552 315.672 17.576C317.163 15.6 317.908 13.4333 317.908 11.076C317.908 8.64933 317.076 6.656 315.412 5.096C313.852 3.536 311.998 2.72133 309.848 2.652C308.635 2.652 307.283 3.05066 305.792 3.848L305.116 5.928C304.978 6.344 304.787 6.93333 304.544 7.696C304.302 8.424 304.094 9.01333 303.92 9.464C303.019 11.648 301.736 12.74 300.072 12.74C299.344 12.74 298.755 12.532 298.304 12.116C297.888 11.6653 297.68 11.0933 297.68 10.4C297.68 8.944 298.426 7.54 299.916 6.188C301.407 4.87066 303.14 3.848 305.116 3.12C307.127 2.35733 309.016 1.976 310.784 1.976C314.667 1.976 317.926 2.808 320.56 4.472C323.195 6.06667 324.512 8.35467 324.512 11.336C324.512 16.4667 319.416 21.0773 309.224 25.168C304.995 27.1787 301.823 28.8947 299.708 30.316C297.628 31.7373 296.294 33.124 295.704 34.476C296.779 33.4013 298.166 32.6213 299.864 32.136C301.528 31.616 303.054 31.356 304.44 31.356C305.931 31.356 308.08 31.876 310.888 32.916C313.8 33.9213 316.262 34.424 318.272 34.424C320.63 34.424 322.38 33.8 323.524 32.552C324.738 31.304 325.726 28.912 326.488 25.376C326.523 25.3067 326.61 25.272 326.748 25.272C326.922 25.272 327.008 25.3067 327.008 25.376C325.83 30.7147 324.911 34.164 324.252 35.724C323.212 38.0467 321.652 39.3293 319.572 39.572C319.33 39.6067 318.948 39.624 318.428 39.624C315.586 39.624 312.5 38.5493 309.172 36.4C305.914 34.2507 303.088 33.176 300.696 33.176ZM341.748 39H336.496C336.461 39 335.785 39.0173 334.468 39.052C333.185 39.1213 332.041 39.156 331.036 39.156C330.759 39.156 330.672 39.0693 330.776 38.896C330.811 38.792 330.897 38.74 331.036 38.74C332.596 38.636 333.671 38.4107 334.26 38.064C334.849 37.7173 335.265 37.024 335.508 35.984C335.785 34.944 335.959 33.1067 336.028 30.472V7.072C334.364 7.76533 332.457 8.30267 330.308 8.684C330.239 8.684 330.187 8.59733 330.152 8.424C330.117 8.216 330.135 8.09466 330.204 8.06C335.681 7.124 339.512 5.252 341.696 2.444C341.8 2.30533 341.973 2.30533 342.216 2.444V30.472C342.285 33.1067 342.441 34.944 342.684 35.984C342.961 37.024 343.395 37.7173 343.984 38.064C344.573 38.4107 345.648 38.636 347.208 38.74C347.312 38.74 347.381 38.7747 347.416 38.844C347.485 38.9133 347.485 38.9827 347.416 39.052C347.381 39.1213 347.312 39.156 347.208 39.156C346.203 39.156 345.041 39.1213 343.724 39.052C342.441 39.0173 341.783 39 341.748 39Z" fill="white"/>
</svg>
